<?xml version="1.0" encoding="UTF-8"?>
<svg version="1.1" xmlns="http://www.w3.org/2000/svg" width="512" height="512">
<path d="M0 0 C0.74507813 0.16628906 1.49015625 0.33257813 2.2578125 0.50390625 C40.15833484 9.29526452 72.85398668 33.56400728 93.48193359 66.37841797 C114.59631224 100.94971799 120.06034415 141.90168536 110.81640625 181.171875 C103.98871694 208.1690903 89.68818429 231.48746263 70 251 C70.58265625 251.31114746 71.1653125 251.62229492 71.765625 251.94287109 C92.64830872 263.12709144 112.10423232 274.49945898 129.515625 290.703125 C131.65342273 292.6795795 133.833984 294.56554656 136.0625 296.4375 C151.72186747 310.16322088 163.75046684 328.04050055 174 346 C174.60303955 347.0513916 174.60303955 347.0513916 175.21826172 348.12402344 C187.81516241 370.32573624 198.61767226 394.91048669 192.4375 420.75 C186.84449514 439.14650378 175.69418473 451.97763724 159 461 C151.73703637 464.23695046 144.92314467 466.12200831 136.95220089 466.13142776 C135.73045758 466.13526891 134.50871427 466.13911005 133.24994844 466.1430676 C131.89734004 466.14228741 130.54473169 466.14140863 129.19212341 466.14044189 C127.75267951 466.14302641 126.31323633 466.14603981 124.87379414 466.1494453 C120.91770381 466.15750861 116.96163163 466.1593045 113.00553405 466.16004276 C108.73881728 466.16189452 104.4721099 466.16944254 100.20539856 466.17617798 C90.87460927 466.18975777 81.54382429 466.19578566 72.21302676 466.20018864 C66.3850748 466.20295204 60.5571245 466.20718961 54.72917366 466.21169281 C38.58881325 466.22388574 22.44845417 466.23418454 6.30808926 466.2375679 C5.27511967 466.23778747 4.24215008 466.23800703 3.17787838 466.23823325 C1.62473971 466.23856067 1.62473971 466.23856067 0.04022449 466.2388947 C-2.05790047 466.23933817 -4.15602543 466.23978473 -6.25415039 466.24023438 C-7.8152603 466.24056652 -7.8152603 466.24056652 -9.40790778 466.24090537 C-26.26420411 466.24485172 -43.12045717 466.26230066 -59.97673679 466.2855939 C-77.28874473 466.30932346 -94.60073097 466.32177051 -111.91275543 466.32293582 C-121.63035847 466.32385175 -131.34790514 466.32958341 -141.06549263 466.34775543 C-149.34200793 466.36317817 -157.61844944 466.36826412 -165.89497638 466.36001733 C-170.11518367 466.35611832 -174.33524248 466.35700362 -178.55543137 466.37107468 C-182.42518062 466.38385884 -186.29467052 466.38257677 -190.16441964 466.37048396 C-191.55815126 466.36853473 -192.95190154 466.37156932 -194.34560699 466.38032833 C-212.18262476 466.48525573 -226.74412244 461.78052795 -239.7890625 449.2421875 C-240.88347656 448.13230469 -240.88347656 448.13230469 -242 447 C-242.64710938 446.36320312 -243.29421875 445.72640625 -243.9609375 445.0703125 C-255.69235783 432.72414525 -258.95049896 416.46734703 -259 400 C-257.60846793 370.89065342 -236.93817762 338.90581193 -219 317 C-218.5884668 316.48695313 -218.17693359 315.97390625 -217.75292969 315.4453125 C-194.95357366 287.04766379 -166.45632803 267.04582509 -134 251 C-134.73863281 250.30777344 -135.47726563 249.61554688 -136.23828125 248.90234375 C-154.32014284 231.61984649 -167.04252227 210.05004462 -174 186 C-174.29511475 184.98075439 -174.29511475 184.98075439 -174.59619141 183.94091797 C-185.31467819 145.66318801 -179.78544654 104.54616363 -160.37890625 70 C-153.87407956 58.85347074 -145.92857445 49.26832234 -137 40 C-136.36964844 39.30648437 -135.73929687 38.61296875 -135.08984375 37.8984375 C-101.90007884 2.4473919 -46.35056507 -10.43709533 0 0 Z M-121 55 C-122.10408203 56.01320313 -122.10408203 56.01320313 -123.23046875 57.046875 C-143.60144999 76.07605508 -156.74380776 106.94918963 -158.12597656 134.51220703 C-159.19237542 173.05780107 -147.4539212 205.61280531 -121 234 C-108.68408016 246.6672456 -93.43564486 254.69032113 -77.62109375 262.1171875 C-75.25688665 263.40468341 -74.81147893 264.43031674 -74 267 C-73.46065672 271.85408949 -73.27652811 273.87978546 -75.9375 278 C-80.07949849 280.70497861 -83.16229807 280.6454673 -88 280 C-91.39844578 278.89249073 -94.50960047 277.37590209 -97.6875 275.75 C-98.50283203 275.35425781 -99.31816406 274.95851563 -100.15820312 274.55078125 C-103.80076218 272.75453143 -106.86410247 271.1118122 -110.01953125 268.515625 C-113.39164758 266.80083976 -113.82866117 266.88868398 -117.2578125 267.97265625 C-118.85137044 268.61760438 -120.43209205 269.29498252 -122 270 C-122.78600586 270.33241699 -123.57201172 270.66483398 -124.38183594 271.00732422 C-141.97294599 278.64006504 -158.63318701 288.22949957 -173 301 C-173.78890625 301.680625 -174.5778125 302.36125 -175.390625 303.0625 C-177.97380981 305.32903635 -180.49375219 307.64859221 -183 310 C-183.78697266 310.73597412 -183.78697266 310.73597412 -184.58984375 311.48681641 C-207.95847589 333.52645878 -236.10347724 370.63411711 -237.375 404.25 C-237.13145032 415.96744562 -232.85950204 425.36408268 -225 434 C-214.4222542 443.72790981 -201.52599339 445.60591604 -187.64096069 445.50120544 C-186.23926755 445.50510797 -184.8375784 445.51075599 -183.43589842 445.51797634 C-179.62122932 445.53261224 -175.80697801 445.52262141 -171.99232292 445.50823963 C-167.86412999 445.49706568 -163.73599262 445.50909345 -159.60780334 445.51808167 C-151.53588775 445.53197192 -143.46412923 445.52448956 -135.3922212 445.50940608 C-125.98293407 445.49249647 -116.57368553 445.49576241 -107.1643879 445.49950016 C-90.37193008 445.50537086 -73.57954739 445.49123738 -56.78710938 445.46655273 C-40.50876043 445.44262664 -24.23051181 445.43555248 -7.95214844 445.44604492 C9.79577304 445.45746417 27.54364819 445.45937234 45.29156911 445.44494683 C47.18532967 445.44342106 49.07909023 445.4419007 50.9728508 445.44038582 C52.37032686 445.4392491 52.37032686 445.4392491 53.79603476 445.43808941 C60.34833018 445.43335497 66.90060484 445.435192 73.45289993 445.43945122 C81.44087727 445.4443869 89.42875993 445.43835313 97.41671564 445.41855692 C101.489 445.408712 105.56114044 445.40354946 109.63343239 445.41144943 C113.36651826 445.41854303 117.09931467 445.41161648 120.83236258 445.3938458 C122.8109126 445.38793121 124.78948996 445.39658875 126.76802695 445.40589231 C139.47803299 445.31610683 150.65516597 442.72632169 160.2265625 433.9609375 C169.07125247 424.58622865 173.18460295 414.15316201 172.94921875 401.20703125 C168.38432816 362.21296585 134.99198337 321.52205342 105.28125 298.03125 C92.37039841 288.02486465 78.66363602 279.81945681 63.86523438 272.92089844 C62.10633242 272.05249815 60.41607379 271.04888641 58.734375 270.0390625 C55.23538391 268.16648687 52.98097597 267.20438046 49 267 C43.17897851 268.93603246 38.13317051 272.40168979 33.03540039 275.73608398 C26.95820651 279.50981947 21.14829651 281.15817348 14 280 C11.42362529 278.11484777 10.40332572 276.80665143 9 274 C8.9453125 271.9765625 8.9453125 271.9765625 9.125 269.625 C9.16882813 268.85414063 9.21265625 268.08328125 9.2578125 267.2890625 C10.49154327 263.48397708 13.32011373 261.92069324 16.73193359 260.05078125 C18.68234388 259.06462447 20.64959927 258.12252457 22.625 257.1875 C52.74493831 242.47170979 75.35049573 217.82298261 86.67504883 186.28540039 C97.60961047 154.07997873 95.97187786 119.51291792 80.94580078 88.87890625 C75.98559757 79.02507973 70.30470313 70.31398853 63 62 C61.98873047 60.77216797 61.98873047 60.77216797 60.95703125 59.51953125 C50.45143027 47.12173948 37.3672716 38.32394891 23 31 C22.05769531 30.50886719 21.11539062 30.01773438 20.14453125 29.51171875 C-26.9924589 6.47806093 -84.49997232 18.85336124 -121 55 Z " fill="#834CCA" transform="translate(288,24)"/>
<path d="M0 0 C1.35206365 -0.01651623 2.70404154 -0.04375 4.05566406 -0.08203125 C16.72241976 -0.4386229 16.72241976 -0.4386229 20.64404297 2.65869141 C23.34759772 6.05167724 23.86451329 8.02157046 23.78857422 12.35009766 C22.24441768 16.5762103 20.65332763 19.05959788 16.78857422 21.35009766 C13.84350586 21.73828125 13.84350586 21.73828125 10.44873047 21.74853516 C8.60698242 21.75433594 8.60698242 21.75433594 6.72802734 21.76025391 C5.44863281 21.74865234 4.16923828 21.73705078 2.85107422 21.72509766 C0.9377832 21.7425 0.9377832 21.7425 -1.01416016 21.76025391 C-2.24328125 21.75638672 -3.47240234 21.75251953 -4.73876953 21.74853516 C-5.86017334 21.74515137 -6.98157715 21.74176758 -8.13696289 21.73828125 C-11.58884052 21.30244504 -13.44103512 20.42446384 -16.21142578 18.35009766 C-18.89048308 14.33151171 -18.90753272 11.07368044 -18.21142578 6.35009766 C-13.56690535 -1.08113503 -8.10398468 0.07247944 0 0 Z " fill="#844CCA" transform="translate(253.21142578125,293.64990234375)"/>
</svg>
